<svg width="74" height="86" viewBox="0 0 74 86" fill="none" xmlns="http://www.w3.org/2000/svg">
<path d="M69.918 57.4303C67.6064 63.6951 64.1106 69.1422 59.5262 73.619C54.308 78.7145 47.4751 82.7635 39.2171 85.6517C38.9461 85.7462 38.6633 85.8237 38.3792 85.8807C38.0039 85.9549 37.622 85.9949 37.2434 86.0002H37.1693C36.7658 86.0002 36.3603 85.9595 35.9581 85.8807C35.674 85.8237 35.3951 85.7462 35.1254 85.6537C26.8576 82.77 20.0161 78.723 14.7927 73.6275C10.2063 69.1508 6.71115 63.7069 4.40289 57.4422C0.205634 46.0518 0.444465 33.504 0.63671 23.4206L0.639991 23.2657C0.678703 22.4331 0.703635 21.5585 0.717414 20.5927C0.78762 15.8508 4.55773 11.9278 9.30023 11.6634C19.1881 11.1116 26.8372 7.88674 33.3729 1.51639L33.43 1.4639C34.5152 0.468552 35.8826 -0.0196078 37.2434 0.000732285C38.5557 0.0177917 39.8627 0.505295 40.9092 1.4639L40.965 1.51639C47.502 7.88674 55.1511 11.1116 65.039 11.6634C69.7815 11.9278 73.5516 15.8508 73.6218 20.5927C73.6356 21.5651 73.6605 22.4384 73.6992 23.2657L73.7012 23.3314C73.8928 33.4338 74.1303 46.0065 69.918 57.4303Z" fill="#00DD80"/>
<path d="M69.9182 57.4302C67.6067 63.6949 64.1108 69.1421 59.5264 73.6189C54.3082 78.7144 47.4753 82.7634 39.2173 85.6516C38.9463 85.7461 38.6635 85.8235 38.3794 85.8806C38.0041 85.9548 37.6222 85.9948 37.2437 86V0.000610352C38.5559 0.0176697 39.8629 0.505173 40.9094 1.46378L40.9652 1.51627C47.5022 7.88662 55.1514 11.1115 65.0392 11.6633C69.7817 11.9277 73.5518 15.8507 73.622 20.5926C73.6358 21.5649 73.6608 22.4382 73.6995 23.2656L73.7014 23.3312C73.893 33.4336 74.1305 46.0064 69.9182 57.4302Z" fill="#00AA63"/>
<path d="M58.6007 43C58.6007 54.7926 49.0258 64.3917 37.2431 64.4337H37.1676C25.3501 64.4337 15.7339 54.8182 15.7339 43C15.7339 31.1825 25.3501 21.5669 37.1676 21.5669H37.2431C49.0258 21.6089 58.6007 31.208 58.6007 43Z" fill="white"/>
<path d="M58.6013 43C58.6013 54.7926 49.0264 64.3917 37.2437 64.4337V21.5669C49.0264 21.6089 58.6013 31.208 58.6013 43Z" fill="#E1EBF0"/>
<path d="M46.8963 39.9136L37.2434 49.5679L35.1575 51.6537C34.6648 52.1465 34.0185 52.3925 33.3729 52.3925C32.7266 52.3925 32.0809 52.1465 31.5875 51.6537L27.1029 47.1671C26.1174 46.1816 26.1174 44.5852 27.1029 43.5991C28.0871 42.6136 29.6854 42.6136 30.6709 43.5991L33.3729 46.301L43.3283 36.3456C44.3138 35.3594 45.9121 35.3594 46.8963 36.3456C47.8818 37.3311 47.8818 38.9294 46.8963 39.9136Z" fill="#B4D2D7"/>
<path d="M46.8966 39.9136L37.2437 49.5679V42.4299L43.3286 36.3456C44.3141 35.3594 45.9124 35.3594 46.8966 36.3456C47.8821 37.3311 47.8821 38.9294 46.8966 39.9136Z" fill="#6FA5AA"/>
</svg>
