<svg width="37" height="37" viewBox="0 0 37 37" fill="none" xmlns="http://www.w3.org/2000/svg">
<circle cx="18.4991" cy="18.536" r="17.5938" fill="url(#paint0_linear_15_1942)"/>
<path d="M12.0481 18.7218C12.0481 17.0308 12.3316 15.7113 12.8985 14.7632C13.4752 13.8053 14.4624 13.3263 15.8601 13.3263C17.2579 13.3263 18.2402 13.8053 18.8071 14.7632C19.3838 15.7113 19.6721 17.0308 19.6721 18.7218C19.6721 20.4323 19.3838 21.7714 18.8071 22.739C18.2402 23.6969 17.2579 24.1759 15.8601 24.1759C14.4624 24.1759 13.4752 23.6969 12.8985 22.739C12.3316 21.7714 12.0481 20.4323 12.0481 18.7218ZM18.0301 18.7218C18.0301 17.9301 17.9763 17.2605 17.8688 16.7132C17.771 16.1658 17.5658 15.7211 17.253 15.379C16.9402 15.0271 16.4759 14.8511 15.8601 14.8511C15.2444 14.8511 14.7801 15.0271 14.4673 15.379C14.1545 15.7211 13.9444 16.1658 13.8369 16.7132C13.7391 17.2605 13.6902 17.9301 13.6902 18.7218C13.6902 19.5428 13.7391 20.2319 13.8369 20.7891C13.9346 21.3462 14.1399 21.7958 14.4526 22.1379C14.7752 22.48 15.2444 22.6511 15.8601 22.6511C16.4759 22.6511 16.9402 22.48 17.253 22.1379C17.5755 21.7958 17.7857 21.3462 17.8834 20.7891C17.9812 20.2319 18.0301 19.5428 18.0301 18.7218ZM21.0742 15.0417V13.5169H24.1237V24.2052H22.4377V15.0417H21.0742Z" fill="white"/>
<defs>
<linearGradient id="paint0_linear_15_1942" x1="18.4991" y1="0.942139" x2="18.4991" y2="36.1298" gradientUnits="userSpaceOnUse">
<stop stop-color="#46BB3A"/>
<stop offset="1" stop-color="#1BE477"/>
</linearGradient>
</defs>
</svg>
