<svg width="36" height="36" viewBox="0 0 36 36" fill="none" xmlns="http://www.w3.org/2000/svg">
<circle cx="17.6346" cy="18.1707" r="17.5938" fill="url(#paint0_linear_15_1948)"/>
<path d="M9.13053 18.3567C9.13053 16.6657 9.41398 15.3462 9.9809 14.3981C10.5576 13.4402 11.5448 12.9612 12.9425 12.9612C14.3403 12.9612 15.3226 13.4402 15.8895 14.3981C16.4662 15.3462 16.7545 16.6657 16.7545 18.3567C16.7545 20.0672 16.4662 21.4063 15.8895 22.3739C15.3226 23.3318 14.3403 23.8108 12.9425 23.8108C11.5448 23.8108 10.5576 23.3318 9.9809 22.3739C9.41398 21.4063 9.13053 20.0672 9.13053 18.3567ZM15.1124 18.3567C15.1124 17.565 15.0587 16.8954 14.9512 16.348C14.8534 15.8007 14.6481 15.356 14.3354 15.0138C14.0226 14.662 13.5583 14.486 12.9425 14.486C12.3267 14.486 11.8625 14.662 11.5497 15.0138C11.2369 15.356 11.0268 15.8007 10.9192 16.348C10.8215 16.8954 10.7726 17.565 10.7726 18.3567C10.7726 19.1777 10.8215 19.8668 10.9192 20.424C11.017 20.9811 11.2222 21.4307 11.535 21.7728C11.8576 22.1149 12.3267 22.286 12.9425 22.286C13.5583 22.286 14.0226 22.1149 14.3354 21.7728C14.6579 21.4307 14.8681 20.9811 14.9658 20.424C15.0636 19.8668 15.1124 19.1777 15.1124 18.3567ZM19.3001 21.5676C20.2385 20.7563 20.9764 20.0916 21.514 19.5736C22.0614 19.0458 22.5159 18.4984 22.8775 17.9315C23.2392 17.3646 23.42 16.7977 23.42 16.2308C23.42 15.6443 23.2783 15.1849 22.9948 14.8526C22.7212 14.5202 22.2862 14.3541 21.69 14.3541C21.1133 14.3541 20.6637 14.5398 20.3411 14.9112C20.0283 15.2729 19.8622 15.7616 19.8426 16.3774H18.2298C18.2592 15.2631 18.5915 14.4127 19.2268 13.8263C19.8719 13.23 20.6881 12.9319 21.6753 12.9319C22.7407 12.9319 23.5715 13.2251 24.1678 13.8116C24.7738 14.3981 25.0768 15.18 25.0768 16.1574C25.0768 16.8612 24.8959 17.5405 24.5343 18.1954C24.1824 18.8405 23.7572 19.4221 23.2587 19.9401C22.77 20.4484 22.1445 21.0397 21.3821 21.7142L20.7223 22.3006H25.37V23.6935H18.2445V22.4766L19.3001 21.5676Z" fill="white"/>
<defs>
<linearGradient id="paint0_linear_15_1948" x1="17.6346" y1="0.576904" x2="17.6346" y2="35.7646" gradientUnits="userSpaceOnUse">
<stop stop-color="#46BB3A"/>
<stop offset="1" stop-color="#1BE477"/>
</linearGradient>
</defs>
</svg>
