<svg width="36" height="36" viewBox="0 0 36 36" fill="none" xmlns="http://www.w3.org/2000/svg">
<circle cx="17.6344" cy="18.1707" r="17.5938" fill="url(#paint0_linear_15_1961)"/>
<path d="M9.74149 18.3567C9.74149 16.6657 10.0249 15.3462 10.5919 14.3981C11.1685 13.4402 12.1558 12.9612 13.5535 12.9612C14.9512 12.9612 15.9335 13.4402 16.5005 14.3981C17.0771 15.3462 17.3655 16.6657 17.3655 18.3567C17.3655 20.0672 17.0771 21.4063 16.5005 22.3739C15.9335 23.3318 14.9512 23.8108 13.5535 23.8108C12.1558 23.8108 11.1685 23.3318 10.5919 22.3739C10.0249 21.4063 9.74149 20.0672 9.74149 18.3567ZM15.7234 18.3567C15.7234 17.565 15.6696 16.8954 15.5621 16.348C15.4644 15.8007 15.2591 15.356 14.9463 15.0138C14.6336 14.662 14.1693 14.486 13.5535 14.486C12.9377 14.486 12.4734 14.662 12.1606 15.0138C11.8479 15.356 11.6377 15.8007 11.5302 16.348C11.4325 16.8954 11.3836 17.565 11.3836 18.3567C11.3836 19.1777 11.4325 19.8668 11.5302 20.424C11.6279 20.9811 11.8332 21.4307 12.146 21.7728C12.4685 22.1149 12.9377 22.286 13.5535 22.286C14.1693 22.286 14.6336 22.1149 14.9463 21.7728C15.2689 21.4307 15.479 20.9811 15.5768 20.424C15.6745 19.8668 15.7234 19.1777 15.7234 18.3567ZM18.9581 15.7909C19.0167 14.8819 19.3637 14.1733 19.9991 13.665C20.6442 13.1567 21.4652 12.9026 22.4622 12.9026C23.1464 12.9026 23.7378 13.0248 24.2362 13.2691C24.7347 13.5135 25.111 13.8458 25.3652 14.2661C25.6193 14.6864 25.7464 15.1605 25.7464 15.6883C25.7464 16.2943 25.5851 16.8123 25.2626 17.2424C24.94 17.6725 24.5539 17.9608 24.1043 18.1074V18.1661C24.681 18.342 25.1306 18.6646 25.4532 19.1337C25.7757 19.5931 25.937 20.1845 25.937 20.9078C25.937 21.4845 25.805 21.9976 25.5411 22.4472C25.2772 22.8969 24.8862 23.2536 24.3682 23.5175C23.8502 23.7717 23.2295 23.8987 22.5062 23.8987C21.4506 23.8987 20.5806 23.6299 19.8964 23.0923C19.222 22.545 18.8604 21.763 18.8115 20.7465H20.4242C20.4633 21.2645 20.6637 21.6897 21.0254 22.0221C21.387 22.3446 21.8757 22.5059 22.4915 22.5059C23.0878 22.5059 23.5472 22.3446 23.8697 22.0221C24.1923 21.6897 24.3535 21.2645 24.3535 20.7465C24.3535 20.0623 24.1336 19.5785 23.6938 19.295C23.2637 19.0018 22.599 18.8552 21.6998 18.8552H21.3186V17.477H21.7145C22.5062 17.4672 23.1073 17.3353 23.5178 17.0811C23.9381 16.827 24.1483 16.4262 24.1483 15.8789C24.1483 15.4097 23.9968 15.0383 23.6938 14.7646C23.3908 14.4811 22.9607 14.3394 22.4036 14.3394C21.8562 14.3394 21.431 14.4811 21.128 14.7646C20.825 15.0383 20.6442 15.3804 20.5855 15.7909H18.9581Z" fill="white"/>
<defs>
<linearGradient id="paint0_linear_15_1961" x1="17.6344" y1="0.576904" x2="17.6344" y2="35.7646" gradientUnits="userSpaceOnUse">
<stop stop-color="#46BB3A"/>
<stop offset="1" stop-color="#1BE477"/>
</linearGradient>
</defs>
</svg>
