<svg width="36" height="37" viewBox="0 0 36 37" fill="none" xmlns="http://www.w3.org/2000/svg">
<circle cx="17.6344" cy="18.536" r="17.5938" fill="url(#paint0_linear_15_1971)"/>
<path d="M9.11484 18.7218C9.11484 17.0308 9.39829 15.7113 9.96521 14.7632C10.5419 13.8053 11.5291 13.3263 12.9268 13.3263C14.3246 13.3263 15.3069 13.8053 15.8738 14.7632C16.4505 15.7113 16.7388 17.0308 16.7388 18.7218C16.7388 20.4323 16.4505 21.7714 15.8738 22.739C15.3069 23.6969 14.3246 24.1759 12.9268 24.1759C11.5291 24.1759 10.5419 23.6969 9.96521 22.739C9.39829 21.7714 9.11484 20.4323 9.11484 18.7218ZM15.0967 18.7218C15.0967 17.9301 15.043 17.2605 14.9355 16.7132C14.8377 16.1658 14.6325 15.7211 14.3197 15.379C14.0069 15.0271 13.5426 14.8511 12.9268 14.8511C12.3111 14.8511 11.8468 15.0271 11.534 15.379C11.2212 15.7211 11.0111 16.1658 10.9035 16.7132C10.8058 17.2605 10.7569 17.9301 10.7569 18.7218C10.7569 19.5428 10.8058 20.2319 10.9035 20.7891C11.0013 21.3462 11.2065 21.7958 11.5193 22.1379C11.8419 22.48 12.3111 22.6511 12.9268 22.6511C13.5426 22.6511 14.0069 22.48 14.3197 22.1379C14.6422 21.7958 14.8524 21.3462 14.9501 20.7891C15.0479 20.2319 15.0967 19.5428 15.0967 18.7218ZM18.1555 21.9766V20.7158L23.0818 13.6489H25.1051V20.5252H26.4686V21.9766H25.1051V24.2052H23.463V21.9766H18.1555ZM23.5363 15.3496L20.0762 20.5252H23.5363V15.3496Z" fill="white"/>
<defs>
<linearGradient id="paint0_linear_15_1971" x1="17.6344" y1="0.942139" x2="17.6344" y2="36.1298" gradientUnits="userSpaceOnUse">
<stop stop-color="#46BB3A"/>
<stop offset="1" stop-color="#1BE477"/>
</linearGradient>
</defs>
</svg>
