<svg width="848" height="93" viewBox="0 0 848 93" fill="none" xmlns="http://www.w3.org/2000/svg">
<path d="M39.0249 92.17C31.3116 92.17 24.9849 91.26 20.0449 89.44C15.1916 87.5333 11.3349 84.6733 8.47488 80.86C5.70155 77.0467 3.75155 72.3233 2.62488 66.69C1.49822 60.97 0.934883 54.34 0.934883 46.8C0.934883 38.74 1.58488 31.85 2.88488 26.13C4.18488 20.3233 6.30822 15.6 9.25488 11.96C12.2882 8.23333 16.2316 5.50333 21.0849 3.77C25.9382 1.95 31.8749 1.04 38.8949 1.04C42.3616 1.04 46.0449 1.25666 49.9449 1.69C53.9316 2.03666 57.7016 2.51333 61.2549 3.11999C64.8082 3.72666 67.7982 4.33333 70.2249 4.93999L70.0949 20.8C67.5816 20.4533 64.5482 20.15 60.9949 19.89C57.5282 19.5433 54.0182 19.24 50.4649 18.98C46.9116 18.72 43.7049 18.59 40.8449 18.59C36.6849 18.59 33.3482 19.1533 30.8349 20.28C28.3216 21.32 26.4149 22.9667 25.1149 25.22C23.8149 27.4733 22.9049 30.3767 22.3849 33.93C21.9516 37.4833 21.7349 41.7733 21.7349 46.8C21.7349 53.2133 22.2116 58.5 23.1649 62.66C24.1182 66.82 25.8949 69.94 28.4949 72.02C31.1816 74.0133 35.0382 75.01 40.0649 75.01C41.1916 75.01 42.4049 74.9667 43.7049 74.88C45.0916 74.7933 46.4349 74.7067 47.7349 74.62C49.0349 74.4467 50.1616 74.3167 51.1149 74.23V57.59H42.0149V42.25H70.6149V88.79C68.5349 89.05 66.1082 89.3967 63.3349 89.83C60.5616 90.2633 57.7016 90.6533 54.7549 91C51.8082 91.3467 48.9482 91.6067 46.1749 91.78C43.4016 92.04 41.0182 92.17 39.0249 92.17ZM83.8962 91V2.6H104.436V91H83.8962ZM149.349 92.56C145.796 92.56 141.983 92.3433 137.909 91.91C133.836 91.4767 129.936 90.9567 126.209 90.35C122.483 89.7433 119.319 89.18 116.719 88.66L117.889 72.67C120.576 73.0167 123.739 73.4067 127.379 73.84C131.019 74.1867 134.659 74.5333 138.299 74.88C141.939 75.14 145.103 75.27 147.789 75.27C150.736 75.27 153.119 74.9233 154.939 74.23C156.846 73.45 158.233 72.3233 159.099 70.85C159.966 69.3767 160.399 67.47 160.399 65.13C160.399 63.2233 159.966 61.7067 159.099 60.58C158.319 59.4533 156.846 58.5433 154.679 57.85C152.599 57.07 149.566 56.3333 145.579 55.64C140.206 54.6867 135.613 53.56 131.799 52.26C128.073 50.96 125.039 49.3133 122.699 47.32C120.359 45.24 118.669 42.6833 117.629 39.65C116.589 36.53 116.069 32.8033 116.069 28.47C116.069 21.3633 117.326 15.8167 119.839 11.83C122.439 7.84333 126.123 5.02666 130.889 3.38C135.656 1.73333 141.289 0.909998 147.789 0.909998C150.823 0.909998 154.246 1.08333 158.059 1.43C161.873 1.77666 165.599 2.16666 169.239 2.6C172.879 3.03333 176.043 3.51 178.729 4.03L177.819 20.28C175.219 19.9333 172.186 19.63 168.719 19.37C165.253 19.0233 161.786 18.7633 158.319 18.59C154.939 18.33 151.993 18.2 149.479 18.2C146.619 18.2 144.236 18.5033 142.329 19.11C140.423 19.63 138.993 20.4967 138.039 21.71C137.173 22.9233 136.739 24.4833 136.739 26.39C136.739 28.5567 137.173 30.2467 138.039 31.46C138.993 32.5867 140.553 33.54 142.719 34.32C144.973 35.1 148.093 35.9233 152.079 36.79C157.453 38.0033 161.959 39.26 165.599 40.56C169.326 41.86 172.316 43.4633 174.569 45.37C176.909 47.19 178.556 49.5733 179.509 52.52C180.549 55.4667 181.069 59.1933 181.069 63.7C181.069 70.6333 179.813 76.2233 177.299 80.47C174.873 84.7167 171.276 87.7933 166.509 89.7C161.829 91.6067 156.109 92.56 149.349 92.56ZM222.093 92.56C218.54 92.56 214.727 92.3433 210.653 91.91C206.58 91.4767 202.68 90.9567 198.953 90.35C195.227 89.7433 192.063 89.18 189.463 88.66L190.633 72.67C193.32 73.0167 196.483 73.4067 200.123 73.84C203.763 74.1867 207.403 74.5333 211.043 74.88C214.683 75.14 217.847 75.27 220.533 75.27C223.48 75.27 225.863 74.9233 227.683 74.23C229.59 73.45 230.977 72.3233 231.843 70.85C232.71 69.3767 233.143 67.47 233.143 65.13C233.143 63.2233 232.71 61.7067 231.843 60.58C231.063 59.4533 229.59 58.5433 227.423 57.85C225.343 57.07 222.31 56.3333 218.323 55.64C212.95 54.6867 208.357 53.56 204.543 52.26C200.817 50.96 197.783 49.3133 195.443 47.32C193.103 45.24 191.413 42.6833 190.373 39.65C189.333 36.53 188.813 32.8033 188.813 28.47C188.813 21.3633 190.07 15.8167 192.583 11.83C195.183 7.84333 198.867 5.02666 203.633 3.38C208.4 1.73333 214.033 0.909998 220.533 0.909998C223.567 0.909998 226.99 1.08333 230.803 1.43C234.617 1.77666 238.343 2.16666 241.983 2.6C245.623 3.03333 248.787 3.51 251.473 4.03L250.563 20.28C247.963 19.9333 244.93 19.63 241.463 19.37C237.997 19.0233 234.53 18.7633 231.063 18.59C227.683 18.33 224.737 18.2 222.223 18.2C219.363 18.2 216.98 18.5033 215.073 19.11C213.167 19.63 211.737 20.4967 210.783 21.71C209.917 22.9233 209.483 24.4833 209.483 26.39C209.483 28.5567 209.917 30.2467 210.783 31.46C211.737 32.5867 213.297 33.54 215.463 34.32C217.717 35.1 220.837 35.9233 224.823 36.79C230.197 38.0033 234.703 39.26 238.343 40.56C242.07 41.86 245.06 43.4633 247.313 45.37C249.653 47.19 251.3 49.5733 252.253 52.52C253.293 55.4667 253.813 59.1933 253.813 63.7C253.813 70.6333 252.557 76.2233 250.043 80.47C247.617 84.7167 244.02 87.7933 239.253 89.7C234.573 91.6067 228.853 92.56 222.093 92.56ZM292.861 91V2.6H313.401V38.48H344.081V2.6H364.621V91H344.081V55.64H313.401V91H292.861ZM415.326 92.56C405.879 92.56 398.296 90.9133 392.576 87.62C386.943 84.3267 382.869 79.3 380.356 72.54C377.843 65.78 376.586 57.2867 376.586 47.06C376.586 36.7467 377.843 28.21 380.356 21.45C382.869 14.6033 386.943 9.49 392.576 6.10999C398.296 2.72999 405.879 1.04 415.326 1.04C424.773 1.04 432.313 2.72999 437.946 6.10999C443.579 9.49 447.653 14.6033 450.166 21.45C452.679 28.21 453.936 36.7467 453.936 47.06C453.936 57.46 452.679 66.04 450.166 72.8C447.653 79.4733 443.579 84.4567 437.946 87.75C432.399 90.9567 424.859 92.56 415.326 92.56ZM415.326 75.4C420.353 75.4 424.123 74.36 426.636 72.28C429.149 70.2 430.839 67.0367 431.706 62.79C432.573 58.5433 433.006 53.3 433.006 47.06C433.006 40.82 432.573 35.5333 431.706 31.2C430.839 26.8667 429.149 23.6167 426.636 21.45C424.123 19.1967 420.353 18.07 415.326 18.07C410.386 18.07 406.616 19.1967 404.016 21.45C401.503 23.6167 399.769 26.8667 398.816 31.2C397.949 35.4467 397.516 40.7333 397.516 47.06C397.516 53.2133 397.949 58.4133 398.816 62.66C399.769 66.9067 401.503 70.1133 404.016 72.28C406.529 74.36 410.299 75.4 415.326 75.4ZM495.931 92.56C492.378 92.56 488.565 92.3433 484.491 91.91C480.418 91.4767 476.518 90.9567 472.791 90.35C469.065 89.7433 465.901 89.18 463.301 88.66L464.471 72.67C467.158 73.0167 470.321 73.4067 473.961 73.84C477.601 74.1867 481.241 74.5333 484.881 74.88C488.521 75.14 491.685 75.27 494.371 75.27C497.318 75.27 499.701 74.9233 501.521 74.23C503.428 73.45 504.815 72.3233 505.681 70.85C506.548 69.3767 506.981 67.47 506.981 65.13C506.981 63.2233 506.548 61.7067 505.681 60.58C504.901 59.4533 503.428 58.5433 501.261 57.85C499.181 57.07 496.148 56.3333 492.161 55.64C486.788 54.6867 482.195 53.56 478.381 52.26C474.655 50.96 471.621 49.3133 469.281 47.32C466.941 45.24 465.251 42.6833 464.211 39.65C463.171 36.53 462.651 32.8033 462.651 28.47C462.651 21.3633 463.908 15.8167 466.421 11.83C469.021 7.84333 472.705 5.02666 477.471 3.38C482.238 1.73333 487.871 0.909998 494.371 0.909998C497.405 0.909998 500.828 1.08333 504.641 1.43C508.455 1.77666 512.181 2.16666 515.821 2.6C519.461 3.03333 522.625 3.51 525.311 4.03L524.401 20.28C521.801 19.9333 518.768 19.63 515.301 19.37C511.835 19.0233 508.368 18.7633 504.901 18.59C501.521 18.33 498.575 18.2 496.061 18.2C493.201 18.2 490.818 18.5033 488.911 19.11C487.005 19.63 485.575 20.4967 484.621 21.71C483.755 22.9233 483.321 24.4833 483.321 26.39C483.321 28.5567 483.755 30.2467 484.621 31.46C485.575 32.5867 487.135 33.54 489.301 34.32C491.555 35.1 494.675 35.9233 498.661 36.79C504.035 38.0033 508.541 39.26 512.181 40.56C515.908 41.86 518.898 43.4633 521.151 45.37C523.491 47.19 525.138 49.5733 526.091 52.52C527.131 55.4667 527.651 59.1933 527.651 63.7C527.651 70.6333 526.395 76.2233 523.881 80.47C521.455 84.7167 517.858 87.7933 513.091 89.7C508.411 91.6067 502.691 92.56 495.931 92.56ZM538.515 91V2.6H572.055C579.769 2.6 586.139 3.59667 591.165 5.59C596.279 7.58333 600.092 10.8767 602.605 15.47C605.205 19.9767 606.505 26.2167 606.505 34.19C606.505 41.99 605.205 48.3167 602.605 53.17C600.092 57.9367 596.279 61.4033 591.165 63.57C586.139 65.7367 579.769 66.82 572.055 66.82H559.055V91H538.515ZM559.055 50.18H571.405C576.432 50.18 580.029 48.88 582.195 46.28C584.449 43.5933 585.575 39.5633 585.575 34.19C585.575 28.73 584.492 24.8733 582.325 22.62C580.159 20.3667 576.519 19.24 571.405 19.24H559.055V50.18ZM616.718 91V2.6H637.258V91H616.718ZM668.651 91V19.76H646.161V2.6H711.161V19.76H689.191V91H668.651ZM706.585 91L728.425 2.6H762.745L784.715 91H764.045L759.625 74.75H731.025L726.865 91H706.585ZM734.015 58.5H757.025L748.055 18.98H743.115L734.015 58.5ZM793.056 91V2.6H813.596V73.84H847.266V91H793.056Z" fill="#F0F0F0"/>
</svg>
