<svg width="27" height="22" viewBox="0 0 27 22" fill="none" xmlns="http://www.w3.org/2000/svg">
<path d="M26.1691 3.35645C25.225 3.78558 24.2073 4.06758 23.1529 4.20244C24.2319 3.55262 25.0656 2.52272 25.4579 1.28438C24.4403 1.89742 23.3123 2.32655 22.123 2.57176C21.1544 1.51734 19.7935 0.904297 18.2486 0.904297C15.3673 0.904297 13.0133 3.25836 13.0133 6.16417C13.0133 6.58103 13.0623 6.98564 13.1481 7.36572C8.78329 7.14503 4.89663 5.04844 2.3096 1.8729C1.85596 2.64533 1.59848 3.55262 1.59848 4.50896C1.59848 6.33582 2.51804 7.95424 3.94029 8.8738C3.06977 8.8738 2.26056 8.62858 1.54944 8.26076V8.29754C1.54944 10.8478 3.36403 12.9812 5.76714 13.4593C4.9956 13.6705 4.18562 13.6998 3.40081 13.5452C3.73382 14.5904 4.38601 15.5049 5.2657 16.1603C6.14538 16.8157 7.20833 17.1789 8.30512 17.1989C6.44593 18.6707 4.14136 19.4663 1.77013 19.4548C1.35326 19.4548 0.936397 19.4303 0.519531 19.3813C2.84908 20.8771 5.62001 21.7476 8.58712 21.7476C18.2486 21.7476 23.5575 13.7291 23.5575 6.77721C23.5575 6.54425 23.5575 6.32356 23.5453 6.0906C24.5752 5.35496 25.4579 4.42314 26.1691 3.35645Z" fill="white"/>
</svg>
