<svg width="24" height="24" viewBox="0 0 24 24" fill="none" xmlns="http://www.w3.org/2000/svg">
<path d="M21.5446 0.831055H2.00396C1.04608 0.831055 0.279785 1.59735 0.279785 2.45944V22.0958C0.279785 22.9579 1.04608 23.7242 2.00396 23.7242H21.5446C22.5024 23.7242 23.2687 22.9579 23.2687 22.0958V2.45944C23.2687 1.59735 22.5024 0.831055 21.5446 0.831055ZM7.08068 20.3717H3.72813V9.45191H7.08068V20.3717ZM5.4523 7.91931C4.39864 7.91931 3.44076 7.05723 3.44076 5.90778C3.44076 4.75833 4.30285 3.89625 5.4523 3.89625C6.50596 3.89625 7.46383 4.75833 7.46383 5.90778C7.46383 7.05723 6.50596 7.91931 5.4523 7.91931ZM19.9162 20.2759H16.5636V14.9118C16.5636 13.6665 16.5636 11.9424 14.7437 11.9424C12.9237 11.9424 12.7321 13.3792 12.7321 14.7202V20.1801H9.37957V9.45191H12.5406V10.8887H12.6363C13.1153 10.0266 14.2647 9.06876 15.8931 9.06876C19.3414 9.06876 20.012 11.3677 20.012 14.3371V20.2759H19.9162Z" fill="white"/>
</svg>
