<svg width="20" height="20" viewBox="0 0 20 20" fill="none" xmlns="http://www.w3.org/2000/svg">
<path d="M18.7733 15.4968C18.7733 15.8208 18.7013 16.1538 18.5483 16.4778C18.3953 16.8018 18.1973 17.1078 17.9363 17.3958C17.4953 17.8818 17.0093 18.2328 16.4603 18.4578C15.9203 18.6828 15.3353 18.7998 14.7053 18.7998C13.7873 18.7998 12.8063 18.5838 11.7713 18.1428C10.7363 17.7018 9.70129 17.1078 8.67529 16.3608C7.62959 15.5959 6.64282 14.7535 5.72329 13.8408C4.81318 12.9246 3.97378 11.9408 3.21229 10.8978C2.47429 9.8718 1.88029 8.8458 1.44829 7.8288C1.01629 6.8028 0.800293 5.8218 0.800293 4.8858C0.800293 4.2738 0.908293 3.6888 1.12429 3.1488C1.34029 2.5998 1.68229 2.0958 2.15929 1.6458C2.73529 1.0788 3.36529 0.799805 4.03129 0.799805C4.28329 0.799805 4.53529 0.853805 4.76029 0.961805C4.99429 1.0698 5.20129 1.2318 5.36329 1.4658L7.45129 4.4088C7.61329 4.6338 7.73029 4.8408 7.81129 5.0388C7.89229 5.2278 7.93729 5.4168 7.93729 5.5878C7.93729 5.8038 7.87429 6.0198 7.74829 6.2268C7.63129 6.4338 7.46029 6.6498 7.24429 6.8658L6.56029 7.5768C6.46129 7.6758 6.41629 7.7928 6.41629 7.9368C6.41629 8.0088 6.42529 8.0718 6.44329 8.1438C6.47029 8.2158 6.49729 8.2698 6.51529 8.3238C6.67729 8.6208 6.95629 9.0078 7.35229 9.4758C7.75729 9.9438 8.18929 10.4208 8.65729 10.8978C9.14329 11.3748 9.61129 11.8158 10.0883 12.2208C10.5563 12.6168 10.9433 12.8868 11.2493 13.0488C11.2943 13.0668 11.3483 13.0938 11.4113 13.1208C11.4833 13.1478 11.5553 13.1568 11.6363 13.1568C11.7893 13.1568 11.9063 13.1028 12.0053 13.0038L12.6893 12.3288C12.9143 12.1038 13.1303 11.9328 13.3373 11.8248C13.5443 11.6988 13.7513 11.6358 13.9763 11.6358C14.1473 11.6358 14.3273 11.6718 14.5253 11.7528C14.7233 11.8338 14.9303 11.9508 15.1553 12.1038L18.1343 14.2188C18.3683 14.3808 18.5303 14.5698 18.6293 14.7948C18.7193 15.0198 18.7733 15.2448 18.7733 15.4968Z" stroke="#F5F5F5" stroke-width="1.35" stroke-miterlimit="10"/>
</svg>
