<svg width="23" height="23" viewBox="0 0 23 23" fill="none" xmlns="http://www.w3.org/2000/svg">
<path d="M16.4336 0.678223C18.0595 0.678223 19.6188 1.3241 20.7685 2.47377C21.9181 3.62344 22.564 5.18273 22.564 6.80861V16.6172C22.564 18.2431 21.9181 19.8024 20.7685 20.9521C19.6188 22.1017 18.0595 22.7476 16.4336 22.7476H6.62501C4.99913 22.7476 3.43985 22.1017 2.29018 20.9521C1.14051 19.8024 0.494629 18.2431 0.494629 16.6172V6.80861C0.494629 5.18273 1.14051 3.62344 2.29018 2.47377C3.43985 1.3241 4.99913 0.678223 6.62501 0.678223H16.4336ZM11.5293 6.80861C10.2286 6.80861 8.98119 7.32531 8.06145 8.24505C7.14172 9.16478 6.62501 10.4122 6.62501 11.7129C6.62501 13.0136 7.14172 14.261 8.06145 15.1808C8.98119 16.1005 10.2286 16.6172 11.5293 16.6172C12.83 16.6172 14.0775 16.1005 14.9972 15.1808C15.9169 14.261 16.4336 13.0136 16.4336 11.7129C16.4336 10.4122 15.9169 9.16478 14.9972 8.24505C14.0775 7.32531 12.83 6.80861 11.5293 6.80861ZM11.5293 9.26076C12.1797 9.26076 12.8034 9.51911 13.2633 9.97898C13.7231 10.4388 13.9815 11.0626 13.9815 11.7129C13.9815 12.3633 13.7231 12.987 13.2633 13.4468C12.8034 13.9067 12.1797 14.1651 11.5293 14.1651C10.879 14.1651 10.2553 13.9067 9.79539 13.4468C9.33552 12.987 9.07717 12.3633 9.07717 11.7129C9.07717 11.0626 9.33552 10.4388 9.79539 9.97898C10.2553 9.51911 10.879 9.26076 11.5293 9.26076ZM17.0467 4.96949C16.7215 4.96949 16.4096 5.09867 16.1797 5.3286C15.9498 5.55854 15.8206 5.87039 15.8206 6.19557C15.8206 6.52074 15.9498 6.8326 16.1797 7.06254C16.4096 7.29247 16.7215 7.42165 17.0467 7.42165C17.3718 7.42165 17.6837 7.29247 17.9136 7.06254C18.1436 6.8326 18.2727 6.52074 18.2727 6.19557C18.2727 5.87039 18.1436 5.55854 17.9136 5.3286C17.6837 5.09867 17.3718 4.96949 17.0467 4.96949Z" fill="white"/>
</svg>
